# AST/ASF file generated using VICON BodyLanguage
# -----------------------------------------------
:version 1.10
:name VICON
:units
  mass 1.0
  length 0.45
  angle deg
:documentation
   .ast/.asf automatically generated from VICON data using
   VICON BodyBuilder and BodyLanguage model FoxedUp or BRILLIANT.MOD
:root
   order TX TY TZ RX RY RZ
   axis XYZ
   position 0 0 0  
   orientation 0 0 0 
:bonedata
  begin
     id 1 
     name lhipjoint
     direction 0.440178 -0.822639 0.359871 
     length 2.53113 
     axis 0 0 0  XYZ
  end
  begin
     id 2 
     name lfemur
     direction 0.34202 -0.939693 0  
     length 7.88132  
     axis 0 0 20  XYZ
    dof rx ry rz
    limits (-160.0 20.0)
           (-70.0 70.0)
           (-60.0 70.0)
  end
  begin
     id 3 
     name ltibia
     direction 0.34202 -0.939693 0   
     length 8.43783   
     axis 0 0 20   XYZ
    dof rx
    limits (-10.0 170.0)
  end
  begin
     id 4 
     name lfoot
     direction 0.0886351 -0.243523 0.965837   
     length 2.63414   
     axis -90 7.62852e-016 20   XYZ
    dof rx rz
    limits (-45.0 90.0)
           (-70.0 20.0)
  end
  begin
     id 5 
     name ltoes
     direction 1.53703e-011 -4.21717e-011 1   
     length 1.31427   
     axis -90 7.62852e-016 20   XYZ
    dof rx
    limits (-90.0 20.0)
  end
  begin
     id 6 
     name rhipjoint
     direction -0.399779 -0.839773 0.367367   
     length 2.47948  
     axis 0 0 0  XYZ 
  end
  begin
     id 7 
     name rfemur
     direction -0.34202 -0.939693 0   
     length 7.74806   
     axis 0 0 -20   XYZ
    dof rx ry rz
    limits (-160.0 20.0)
           (-70.0 70.0)
           (-70.0 60.0)
  end
  begin
     id 8 
     name rtibia
     direction -0.34202 -0.939693 0   
     length 8.74432   
     axis 0 0 -20   XYZ
    dof rx
    limits (-10.0 170.0)
 end
 begin
     id 9 
     name rfoot
     direction -0.108514 -0.298139 0.948334   
     length 2.66102  
     axis -90 -7.62852e-016 -20   XYZ
    dof rx rz
    limits (-45.0 90.0)
           (-20.0 70.0)
  end
  begin
     id 10 
     name rtoes
     direction -1.53392e-011 -4.22077e-011 1   
     length 1.31983   
     axis -90 -7.62852e-016 -20   XYZ
    dof rx
    limits (-90.0 20.0)
  end
  begin
     id 11 
     name lowerback
     direction 0.0113257 0.999866 0.0118602   
     length 2.58694   
     axis 0 0 0   XYZ
    dof rx ry rz
    limits (-20.0 45.0)
           (-30.0 30.0)
           (-30.0 30.0)
  end
  begin
     id 12 
     name upperback
     direction -0.0164747 0.995193 -0.0965375   
     length 2.52368   
     axis 0 0 0   XYZ
    dof rx ry rz
    limits (-20.0 45.0)
           (-30.0 30.0)
           (-30.0 30.0)
  end
  begin
     id 13 
     name thorax
     direction -0.0194301 0.99433 -0.104552   
     length 2.56099   
     axis 0 0 0   XYZ
    dof rx ry rz
    limits (-20.0 45.0)
           (-30.0 30.0)
           (-30.0 30.0)
  end
  begin
     id 14 
     name lowerneck
     direction 0.0148543 0.995587 -0.092657   
     length 1.71582   
     axis 0 0 0   XYZ
    dof rx ry rz
    limits (-20.0 45.0)
           (-30.0 30.0)
           (-30.0 30.0)
  end
  begin
     id 15 
     name upperneck
     direction -0.0135467 0.993656 -0.111639   
     length 1.68937   
     axis 0 0 0   XYZ
    dof rx ry rz
    limits (-20.0 45.0)
           (-30.0 30.0)
           (-30.0 30.0)
  end
  begin
     id 16
     name head
     direction -0.00615349 0.999547 -0.029448  
     length 1.7462  
     axis 0 0 0   XYZ
    dof rx ry rz
    limits (-20.0 45.0)
           (-30.0 30.0)
           (-30.0 30.0)
  end
  begin
     id 17 
     name lclavicle
     direction 0.988267 0.149885 0.0293713  
     length 4.47222  
     axis 0 0 0   XYZ
    dof ry rz
    limits (-20.0 10.0)
           (0.0 20.0)
  end
  begin
     id 18 
     name lhumerus
     direction 1 -4.48986e-011 -1.14833e-027   
     length 5.37148   
     axis 180 -30 -90   XYZ
    dof rx ry rz
    limits (-60.0 90.0)
           (-90.0 90.0)
           (-90.0 90.0)
  end
  begin
     id 19
     name lradius
     direction 0.999998 0.00170963 -0.000987055   
     length 3.94212   
     axis 180 -30 -90   XYZ
    dof rx
    limits (-10.0 170.0)
  end
  begin
     id 20
     name lwrist
     direction 0.999998 7.53149e-005 -0.00194706   
     length 1.97106   
     axis 4.65056e-015 90 90   XYZ
    dof ry
    limits (-180.0 0.0)
 end
  begin
     id 21 
     name lhand
     direction 1 -4.48973e-011 -1.31746e-026   
     length 1.17917   
     axis 8.4065e-015 90 90   XYZ
    dof rx rz
    limits (-90.0 90.0)
           (-45.0 45.0)
  end
  begin
     id 22 
     name lfingers
     direction 1 -4.49107e-011 -2.63492e-026   
     length 0.950679   
     axis 1.6813e-014 90 90   XYZ
    dof rx
    limits (0.0 90.0)
  end
  begin
     id 23
     name lthumb
     direction 0.707107 -6.35048e-011 0.707107   
     length 1.36499   
     axis -90 45 2.85299e-015   XYZ
    dof rx rz
    limits (-45.0 45.0)
           (-45.0 45.0)
  end
  begin
     id 24 
     name rclavicle
     direction -0.996699 0.0642895 -0.0495725   
     length 4.62611  
     axis 0 0 0   XYZ 
    dof ry rz
    limits (-10.0 20.0)
           (-20.0 0.0)
  end
  begin
     id 25 
     name rhumerus
     direction -1 -4.48919e-011 -2.41059e-027  
     length 5.4981   
     axis 180 30 90   XYZ
    dof rx ry rz
    limits (-90.0 60.0)
           (-90.0 90.0)
           (-90.0 90.0)
  end
  begin
     id 26 
     name rradius
     direction -0.999999 0.00118101 -0.000681858   
     length 3.48381   
     axis 180 30 90   XYZ
    dof rx
    limits (-10.0 170.0)
  end
  begin
     id 27 
     name rwrist
     direction -0.999999 0.000321823 -0.00132288   
     length 1.7419   
     axis 4.65056e-015 -90 -90   XYZ
    dof ry
    limits (-180.0 0.0)
  end
  begin
     id 28
     name rhand
     direction -1 -4.49022e-011 -1.31746e-026   
     length 1.34932   
     axis 8.4065e-015 -90 -90   XYZ
    dof rx rz
    limits (-90.0 90.0)
           (-45.0 45.0)
  end
  begin
     id 29
     name rfingers
     direction -1 -4.49178e-011 -2.63492e-026   
     length 1.08785   
     axis 1.6813e-014 -90 -90   XYZ
    dof rx
    limits (0.0 90.0)
  end
  begin
     id 30
     name rthumb
     direction -0.707107 -6.34713e-011 0.707107   
     length 1.56195   
     axis -90 -45 -2.85299e-015   XYZ
    dof rx rz
    limits (-45.0 45.0)
           (-45.0 45.0)
  end
:hierarchy
  begin
    root lhipjoint rhipjoint lowerback
    lhipjoint lfemur
    lfemur ltibia
    ltibia lfoot
    lfoot ltoes
    rhipjoint rfemur
    rfemur rtibia
    rtibia rfoot
    rfoot rtoes
    lowerback upperback
    upperback thorax
    thorax lowerneck lclavicle rclavicle
    lowerneck upperneck
    upperneck head
    lclavicle lhumerus
    lhumerus lradius
    lradius lwrist
    lwrist lhand lthumb
    lhand lfingers
    rclavicle rhumerus
    rhumerus rradius
    rradius rwrist
    rwrist rhand rthumb
    rhand rfingers
  end

#!OML:ASF X:\für Bonn\!DataBase\2005_08_10_Bjorn_Final\c3d\bjorn.ASF
:FULLY-SPECIFIED
:DEGREES
1
root 1.74811 19.1196 3.34418 -176.488 -4.0472 -177.887
lowerback -9.48822 2.6542 9.3
upperback 2.94025 2.03813 1.9426
thorax 8.79653 1.36192 -2.79985
lowerneck -1.35768 -0.535572 -0.0331002
upperneck 28.4407 -2.9822 -3.76627
head 9.05425 -2.90015 -1.70432
rclavicle 2.05742e-014 5.00937e-014
rhumerus -32.7082 -41.9266 -61.1289
rradius 14.4128
rwrist 38.7197
rhand -7.66393 7.40073
rfingers 7.12502
rthumb 18.2322 -21.7648
lclavicle 2.05742e-014 5.00937e-014
lhumerus -25.782 -15.6219 86.5831
lradius 30.4032
lwrist -32.4616
lhand -26.5587 -21.3201
lfingers 7.12502
lthumb 0.00616208 8.65969
rfemur -14.0424 -25.7155 20.4527
rtibia 31.4909
rfoot -10.2679 32.1747
rtoes -12.0339
lfemur -17.4641 8.95951 -17.1204
ltibia 35.1293
lfoot -16.1113 -5.75608
ltoes -5.61869
2
root 1.73997 19.1272 3.35007 -176.512 -4.4368 -177.887
lowerback -9.30998 2.59639 9.00614
upperback 3.01786 2.01921 1.93821
thorax 8.75993 1.34019 -2.64882
lowerneck -1.20465 -0.631633 -0.234074
upperneck 28.2089 -3.07215 -3.74294
head 8.94539 -2.94442 -1.6558
rclavicle 5.29761e-014 6.44062e-014
rhumerus -35.9485 -46.2047 -57.0607
rradius 13.5421
rwrist 40.9827
rhand -8.22651 7.06474
rfingers 7.12502
rthumb 17.6909 -22.1505
lclavicle 5.29761e-014 6.44062e-014
lhumerus -25.4384 -17.0462 86.498
lradius 31.6807
lwrist -31.7286
lhand -26.7793 -20.9108
lfingers 7.12502
lthumb -0.206888 9.06886
rfemur -13.9925 -25.0548 20.5612
rtibia 31.4262
rfoot -11.4322 30.8701
rtoes -13.4372
lfemur -17.4907 8.13144 -17.101
ltibia 35.0801
lfoot -15.9931 -5.58431
ltoes -6.27502
3
root 1.73083 19.1367 3.35589 -176.569 -4.80304 -177.918
lowerback -9.07777 2.55086 8.74746
upperback 3.10659 2.02208 1.88961
thorax 8.71004 1.33296 -2.56206
lowerneck -1.15975 -0.72647 -0.491941
upperneck 28.0533 -3.1758 -3.63583
head 8.88657 -2.99381 -1.5749
rclavicle 6.03311e-014 5.56597e-014
rhumerus -39.7472 -49.9103 -52.626
rradius 12.8973
rwrist 42.8533
rhand -8.84403 6.72474
rfingers 7.12502
rthumb 17.0966 -22.543
lclavicle 6.03311e-014 5.56597e-014
lhumerus -25.0923 -18.4785 86.289
lradius 33.001
lwrist -31.0914
lhand -27.1731 -20.5541
lfingers 7.12502
lthumb -0.587262 9.4248
rfemur -13.897 -24.3697 20.6306
rtibia 31.3635
rfoot -12.7249 29.4015
rtoes -15.212
lfemur -17.4726 7.26643 -17.0977
ltibia 35.027
lfoot -15.7795 -5.50281
ltoes -5.57496
4
root 1.72098 19.1447 3.36016 -176.625 -5.1594 -177.95
lowerback -8.88583 2.53706 8.51426
upperback 3.20635 2.059 1.82583
thorax 8.7015 1.34554 -2.49781
lowerneck -1.10899 -0.838206 -0.702785
upperneck 27.8813 -3.29894 -3.54786
head 8.81999 -3.04745 -1.50934
rclavicle 6.16232e-015 2.3059e-014
rhumerus -43.8132 -52.7224 -48.1851
rradius 12.5212
rwrist 43.9049
rhand -9.47763 6.46498
rfingers 7.12502
rthumb 16.4866 -22.8545
lclavicle 6.16232e-015 2.3059e-014
lhumerus -24.7436 -19.9849 86.0056
lradius 34.3551
lwrist -30.4524
lhand -27.7196 -20.3181
lfingers 7.12502
lthumb -1.11514 9.65875
rfemur -13.8179 -23.6768 20.7018
rtibia 31.3286
rfoot -13.9112 27.828
rtoes -16.8005
lfemur -17.4315 6.40419 -17.0961
ltibia 34.9501
lfoot -15.4964 -5.49067
ltoes -3.91746
5
root 1.71141 19.1499 3.36309 -176.72 -5.5353 -177.982
lowerback -8.71784 2.52006 8.29376
upperback 3.32465 2.08637 1.74887
thorax 8.72721 1.35588 -2.45494
lowerneck -0.994028 -0.957952 -0.930135
upperneck 27.6886 -3.44992 -3.40729
head 8.73618 -3.11146 -1.42338
rclavicle -1.85864e-014 3.18055e-015
rhumerus -47.4178 -54.3159 -44.5992
rradius 12.3846
rwrist 43.7115
rhand -10.0746 6.29863
rfingers 7.12502
rthumb 15.9118 -23.0677
lclavicle -1.85864e-014 3.18055e-015
lhumerus -24.3925 -21.4064 85.6111
lradius 35.7213
lwrist -29.8919
lhand -28.4597 -20.3514
lfingers 7.12502
lthumb -1.82994 9.62047
rfemur -13.7019 -22.9462 20.7648
rtibia 31.32
rfoot -14.9825 26.1306
rtoes -18.2301
lfemur -17.3333 5.66286 -17.0999
ltibia 34.8421
lfoot -15.2136 -5.52701
ltoes -2.75234
6
root 1.70142 19.1535 3.36422 -176.81 -5.91164 -178.031
lowerback -8.57607 2.50919 8.05546
upperback 3.46315 2.12031 1.6607
thorax 8.79049 1.37006 -2.41146
lowerneck -0.945168 -1.09033 -1.10214
upperneck 27.4928 -3.60515 -3.29967
head 8.66229 -3.1719 -1.35953
rclavicle 8.34896e-015 -5.1684e-014
rhumerus -50.4806 -55.1561 -41.7928
rradius 12.4117
rwrist 42.829
rhand -10.6355 6.29881
rfingers 7.12502
rthumb 15.3716 -23.1098
lclavicle 8.34896e-015 -5.1684e-014
lhumerus -24.0089 -22.8688 85.1117
lradius 37.1301
lwrist -29.3166
lhand -29.3481 -20.551
lfingers 7.12502
lthumb -2.68792 9.41186
rfemur -13.5933 -22.245 20.8134
rtibia 31.3378
rfoot -15.8859 24.4113
rtoes -19.3134
lfemur -17.2178 5.04981 -17.1439
ltibia 34.6966
lfoot -14.9245 -5.58366
ltoes -1.83256
7
root 1.69217 19.1567 3.36387 -176.936 -6.29724 -178.098
lowerback -8.39622 2.5116 7.81038
upperback 3.60365 2.17795 1.5526
thorax 8.83639 1.39537 -2.38276
lowerneck -0.971299 -1.24454 -1.23371
upperneck 27.3688 -3.79869 -3.18783
head 8.62682 -3.24805 -1.30817
rclavicle 1.40143e-014 4.92986e-014
rhumerus -52.3188 -54.96 -40.616
rradius 12.6157
rwrist 40.7586
rhand -11.0746 6.34237
rfingers 7.12502
rthumb 14.9486 -23.0982
lclavicle 1.40143e-014 4.92986e-014
lhumerus -23.6045 -24.2569 84.514
lradius 38.5453
lwrist -28.7773
lhand -30.3039 -21.0782
lfingers 7.12502
lthumb -3.61095 8.87095
rfemur -13.432 -21.4833 20.8282
rtibia 31.3688
rfoot -16.5592 22.6873
rtoes -19.7276
lfemur -17.0416 4.5974 -17.2067
ltibia 34.5242
lfoot -14.6539 -5.7567
ltoes -1.15624
8
root 1.68108 19.1602 3.36088 -177.075 -6.70302 -178.145
lowerback -8.21469 2.50289 7.57646
upperback 3.73772 2.2153 1.46578
thorax 8.87164 1.40909 -2.34145
lowerneck -1.02072 -1.39281 -1.40356
upperneck 27.2556 -3.98406 -3.05614
head 8.60136 -3.32257 -1.24409
rclavicle -3.71727e-014 -6.44062e-014
rhumerus -53.8083 -54.5585 -39.8426
rradius 12.8702
rwrist 38.775
rhand -11.3639 6.44961
rfingers 7.12502
rthumb 14.6699 -23.0114
lclavicle -3.71727e-014 -6.44062e-014
lhumerus -23.1779 -25.4877 83.8537
lradius 39.9526
lwrist -28.3575
lhand -31.3425 -21.8306
lfingers 7.12502
lthumb -4.61385 8.09914
rfemur -13.2468 -20.7387 20.8581
rtibia 31.3995
rfoot -17.1356 20.9882
rtoes -19.9517
lfemur -16.8273 4.1139 -17.2526
ltibia 34.3421
lfoot -14.4669 -5.90748
ltoes -0.533117
